<svg width="2512" height="1579.2000000000003" xmlns="http://www.w3.org/2000/svg" xmlns:xlink="http://www.w3.org/1999/xlink" xml:space="preserve">
 <g>
  <title>Layer 1</title>
  <g id="svg_134">
   <g id="svg_135">
    <g id="svg_136">
     <g id="svg_137">
      <defs>
       <polygon points="1143.6,766.1 1738.3,766.1 1738.3,1094.4 1123.6,1084.4 " id="SVGID_108_"/>
       <pattern id="svg_598" height="28.7988" width="28.7993" y="0" x="0" patternUnits="userSpaceOnUse" patternTransform="matrix(5,0,0,5,4502.38037109375,98)">
        <g id="svg_2865" transform="scale(0.1)">
         <g id="svg_2866">
          <g id="svg_2867" clip-path="url(#svg_2868)">
           <path fill="#d4d425" fill-rule="nonzero" id="svg_2881" d="m287.992,-36.0078c19.883,0 35.996,16.1133 35.996,36.0078c0,19.8828 -16.113,35.9961 -35.996,35.9961c-19.883,0 -35.996,-16.1133 -35.996,-35.9961c0,-19.8945 16.113,-36.0078 35.996,-36.0078"/>
           <path fill="#d4d425" fill-rule="nonzero" id="svg_2880" d="m143.969,-36.0078c19.894,0 36.027,16.1133 36.027,36.0078c0,19.8828 -16.133,35.9961 -36.027,35.9961c-19.883,0 -35.989,-16.1133 -35.989,-35.9961c0,-19.8945 16.106,-36.0078 35.989,-36.0078"/>
           <path fill="#d4d425" fill-rule="nonzero" id="svg_2879" d="m287.992,107.988c19.883,0 35.996,16.121 35.996,36.004c0,19.895 -16.113,36.008 -35.996,36.008c-19.883,0 -35.996,-16.113 -35.996,-36.008c0,-19.883 16.113,-36.004 35.996,-36.004"/>
           <path fill="#d4d425" fill-rule="nonzero" id="svg_2878" d="m143.969,107.988c19.894,0 36.027,16.121 36.027,36.004c0,19.895 -16.133,36.008 -36.027,36.008c-19.883,0 -35.989,-16.113 -35.989,-36.008c0,-19.883 16.106,-36.004 35.989,-36.004"/>
           <path fill="#d4d425" fill-rule="nonzero" id="svg_2877" d="m71.9883,35.9961c19.875,0 35.9917,16.1133 35.9917,35.9961c0,19.8945 -16.1167,35.9958 -35.9917,35.9958c-19.8945,0 -36.0078,-16.1013 -36.0078,-35.9958c0,-19.8828 16.1133,-35.9961 36.0078,-35.9961"/>
           <path fill="#d4d425" fill-rule="nonzero" id="svg_2876" d="m216,35.9961c19.883,0 35.996,16.1133 35.996,35.9961c0,19.8945 -16.113,35.9958 -35.996,35.9958c-19.883,0 -36.004,-16.1013 -36.004,-35.9958c0,-19.8828 16.121,-35.9961 36.004,-35.9961"/>
           <path fill="#d4d425" fill-rule="nonzero" id="svg_2875" d="m71.9883,180c19.875,0 35.9917,16.113 35.9917,35.996c0,19.895 -16.1167,35.996 -35.9917,35.996c-19.8945,0 -36.0078,-16.101 -36.0078,-35.996c0,-19.883 16.1133,-35.996 36.0078,-35.996"/>
           <path fill="#d4d425" fill-rule="nonzero" id="svg_2874" d="m216,180c19.883,0 35.996,16.113 35.996,35.996c0,19.895 -16.113,35.996 -35.996,35.996c-19.883,0 -36.004,-16.101 -36.004,-35.996c0,-19.883 16.121,-35.996 36.004,-35.996"/>
           <path fill="#d4d425" fill-rule="nonzero" id="svg_2873" d="m0,-36.0078c19.8828,0 35.9961,16.1133 35.9961,36.0078c0,19.8828 -16.1133,35.9961 -35.9961,35.9961c-19.8828,0 -35.9961,-16.1133 -35.9961,-35.9961c0,-19.8945 16.1133,-36.0078 35.9961,-36.0078"/>
           <path fill="#d4d425" fill-rule="nonzero" id="svg_2872" d="m0,107.988c19.8828,0 35.9961,16.121 35.9961,36.004c0,19.895 -16.1133,36.008 -35.9961,36.008c-19.8828,0 -35.9961,-16.113 -35.9961,-36.008c0,-19.883 16.1133,-36.004 35.9961,-36.004"/>
           <path fill="#d4d425" fill-rule="nonzero" id="svg_2871" d="m287.992,251.98c19.883,0 35.996,16.118 35.996,36.008c0,19.883 -16.113,35.996 -35.996,35.996c-19.883,0 -35.996,-16.113 -35.996,-35.996c0,-19.89 16.113,-36.008 35.996,-36.008"/>
           <path fill="#d4d425" fill-rule="nonzero" id="svg_2870" d="m143.969,251.98c19.894,0 36.027,16.118 36.027,36.008c0,19.883 -16.133,35.996 -36.027,35.996c-19.883,0 -35.989,-16.113 -35.989,-35.996c0,-19.89 16.106,-36.008 35.989,-36.008"/>
           <path fill="#d4d425" fill-rule="nonzero" id="svg_2869" d="m0,251.98c19.8828,0 35.9961,16.118 35.9961,36.008c0,19.883 -16.1133,35.996 -35.9961,35.996c-19.8828,0 -35.9961,-16.113 -35.9961,-35.996c0,-19.89 16.1133,-36.008 35.9961,-36.008"/>
          </g>
         </g>
        </g>
       </pattern>
       <pattern id="svg_596" height="28.7988" width="28.7993" y="0" x="0" patternUnits="userSpaceOnUse" patternTransform="matrix(5,0,0,5,4464.38037109375,17)">
        <g id="svg_2847" transform="scale(0.1)">
         <g id="svg_2848">
          <g id="svg_2849" clip-path="url(#svg_2850)">
           <path fill="#d4d425" fill-rule="nonzero" id="svg_2863" d="m287.992,-36.0078c19.883,0 35.996,16.1133 35.996,36.0078c0,19.8828 -16.113,35.9961 -35.996,35.9961c-19.883,0 -35.996,-16.1133 -35.996,-35.9961c0,-19.8945 16.113,-36.0078 35.996,-36.0078"/>
           <path fill="#d4d425" fill-rule="nonzero" id="svg_2862" d="m143.969,-36.0078c19.894,0 36.027,16.1133 36.027,36.0078c0,19.8828 -16.133,35.9961 -36.027,35.9961c-19.883,0 -35.989,-16.1133 -35.989,-35.9961c0,-19.8945 16.106,-36.0078 35.989,-36.0078"/>
           <path fill="#d4d425" fill-rule="nonzero" id="svg_2861" d="m287.992,107.988c19.883,0 35.996,16.121 35.996,36.004c0,19.895 -16.113,36.008 -35.996,36.008c-19.883,0 -35.996,-16.113 -35.996,-36.008c0,-19.883 16.113,-36.004 35.996,-36.004"/>
           <path fill="#d4d425" fill-rule="nonzero" id="svg_2860" d="m143.969,107.988c19.894,0 36.027,16.121 36.027,36.004c0,19.895 -16.133,36.008 -36.027,36.008c-19.883,0 -35.989,-16.113 -35.989,-36.008c0,-19.883 16.106,-36.004 35.989,-36.004"/>
           <path fill="#d4d425" fill-rule="nonzero" id="svg_2859" d="m71.9883,35.9961c19.875,0 35.9917,16.1133 35.9917,35.9961c0,19.8945 -16.1167,35.9958 -35.9917,35.9958c-19.8945,0 -36.0078,-16.1013 -36.0078,-35.9958c0,-19.8828 16.1133,-35.9961 36.0078,-35.9961"/>
           <path fill="#d4d425" fill-rule="nonzero" id="svg_2858" d="m216,35.9961c19.883,0 35.996,16.1133 35.996,35.9961c0,19.8945 -16.113,35.9958 -35.996,35.9958c-19.883,0 -36.004,-16.1013 -36.004,-35.9958c0,-19.8828 16.121,-35.9961 36.004,-35.9961"/>
           <path fill="#d4d425" fill-rule="nonzero" id="svg_2857" d="m71.9883,180c19.875,0 35.9917,16.113 35.9917,35.996c0,19.895 -16.1167,35.996 -35.9917,35.996c-19.8945,0 -36.0078,-16.101 -36.0078,-35.996c0,-19.883 16.1133,-35.996 36.0078,-35.996"/>
           <path fill="#d4d425" fill-rule="nonzero" id="svg_2856" d="m216,180c19.883,0 35.996,16.113 35.996,35.996c0,19.895 -16.113,35.996 -35.996,35.996c-19.883,0 -36.004,-16.101 -36.004,-35.996c0,-19.883 16.121,-35.996 36.004,-35.996"/>
           <path fill="#d4d425" fill-rule="nonzero" id="svg_2855" d="m0,-36.0078c19.8828,0 35.9961,16.1133 35.9961,36.0078c0,19.8828 -16.1133,35.9961 -35.9961,35.9961c-19.8828,0 -35.9961,-16.1133 -35.9961,-35.9961c0,-19.8945 16.1133,-36.0078 35.9961,-36.0078"/>
           <path fill="#d4d425" fill-rule="nonzero" id="svg_2854" d="m0,107.988c19.8828,0 35.9961,16.121 35.9961,36.004c0,19.895 -16.1133,36.008 -35.9961,36.008c-19.8828,0 -35.9961,-16.113 -35.9961,-36.008c0,-19.883 16.1133,-36.004 35.9961,-36.004"/>
           <path fill="#d4d425" fill-rule="nonzero" id="svg_2853" d="m287.992,251.98c19.883,0 35.996,16.118 35.996,36.008c0,19.883 -16.113,35.996 -35.996,35.996c-19.883,0 -35.996,-16.113 -35.996,-35.996c0,-19.89 16.113,-36.008 35.996,-36.008"/>
           <path fill="#d4d425" fill-rule="nonzero" id="svg_2852" d="m143.969,251.98c19.894,0 36.027,16.118 36.027,36.008c0,19.883 -16.133,35.996 -36.027,35.996c-19.883,0 -35.989,-16.113 -35.989,-35.996c0,-19.89 16.106,-36.008 35.989,-36.008"/>
           <path fill="#d4d425" fill-rule="nonzero" id="svg_2851" d="m0,251.98c19.8828,0 35.9961,16.118 35.9961,36.008c0,19.883 -16.1133,35.996 -35.9961,35.996c-19.8828,0 -35.9961,-16.113 -35.9961,-35.996c0,-19.89 16.1133,-36.008 35.9961,-36.008"/>
          </g>
         </g>
        </g>
       </pattern>
       <pattern id="svg_594" height="28.7988" width="28.7993" y="0" x="0" patternUnits="userSpaceOnUse" patternTransform="matrix(5,0,0,5,4466.38037109375,58)">
        <g id="svg_2829" transform="scale(0.1)">
         <g id="svg_2830">
          <g id="svg_2831" clip-path="url(#svg_2832)">
           <path fill="#d4d425" fill-rule="nonzero" id="svg_2845" d="m287.992,-36.0078c19.883,0 35.996,16.1133 35.996,36.0078c0,19.8828 -16.113,35.9961 -35.996,35.9961c-19.883,0 -35.996,-16.1133 -35.996,-35.9961c0,-19.8945 16.113,-36.0078 35.996,-36.0078"/>
           <path fill="#d4d425" fill-rule="nonzero" id="svg_2844" d="m143.969,-36.0078c19.894,0 36.027,16.1133 36.027,36.0078c0,19.8828 -16.133,35.9961 -36.027,35.9961c-19.883,0 -35.989,-16.1133 -35.989,-35.9961c0,-19.8945 16.106,-36.0078 35.989,-36.0078"/>
           <path fill="#d4d425" fill-rule="nonzero" id="svg_2843" d="m287.992,107.988c19.883,0 35.996,16.121 35.996,36.004c0,19.895 -16.113,36.008 -35.996,36.008c-19.883,0 -35.996,-16.113 -35.996,-36.008c0,-19.883 16.113,-36.004 35.996,-36.004"/>
           <path fill="#d4d425" fill-rule="nonzero" id="svg_2842" d="m143.969,107.988c19.894,0 36.027,16.121 36.027,36.004c0,19.895 -16.133,36.008 -36.027,36.008c-19.883,0 -35.989,-16.113 -35.989,-36.008c0,-19.883 16.106,-36.004 35.989,-36.004"/>
           <path fill="#d4d425" fill-rule="nonzero" id="svg_2841" d="m71.9883,35.9961c19.875,0 35.9917,16.1133 35.9917,35.9961c0,19.8945 -16.1167,35.9958 -35.9917,35.9958c-19.8945,0 -36.0078,-16.1013 -36.0078,-35.9958c0,-19.8828 16.1133,-35.9961 36.0078,-35.9961"/>
           <path fill="#d4d425" fill-rule="nonzero" id="svg_2840" d="m216,35.9961c19.883,0 35.996,16.1133 35.996,35.9961c0,19.8945 -16.113,35.9958 -35.996,35.9958c-19.883,0 -36.004,-16.1013 -36.004,-35.9958c0,-19.8828 16.121,-35.9961 36.004,-35.9961"/>
           <path fill="#d4d425" fill-rule="nonzero" id="svg_2839" d="m71.9883,180c19.875,0 35.9917,16.113 35.9917,35.996c0,19.895 -16.1167,35.996 -35.9917,35.996c-19.8945,0 -36.0078,-16.101 -36.0078,-35.996c0,-19.883 16.1133,-35.996 36.0078,-35.996"/>
           <path fill="#d4d425" fill-rule="nonzero" id="svg_2838" d="m216,180c19.883,0 35.996,16.113 35.996,35.996c0,19.895 -16.113,35.996 -35.996,35.996c-19.883,0 -36.004,-16.101 -36.004,-35.996c0,-19.883 16.121,-35.996 36.004,-35.996"/>
           <path fill="#d4d425" fill-rule="nonzero" id="svg_2837" d="m0,-36.0078c19.8828,0 35.9961,16.1133 35.9961,36.0078c0,19.8828 -16.1133,35.9961 -35.9961,35.9961c-19.8828,0 -35.9961,-16.1133 -35.9961,-35.9961c0,-19.8945 16.1133,-36.0078 35.9961,-36.0078"/>
           <path fill="#d4d425" fill-rule="nonzero" id="svg_2836" d="m0,107.988c19.8828,0 35.9961,16.121 35.9961,36.004c0,19.895 -16.1133,36.008 -35.9961,36.008c-19.8828,0 -35.9961,-16.113 -35.9961,-36.008c0,-19.883 16.1133,-36.004 35.9961,-36.004"/>
           <path fill="#d4d425" fill-rule="nonzero" id="svg_2835" d="m287.992,251.98c19.883,0 35.996,16.118 35.996,36.008c0,19.883 -16.113,35.996 -35.996,35.996c-19.883,0 -35.996,-16.113 -35.996,-35.996c0,-19.89 16.113,-36.008 35.996,-36.008"/>
           <path fill="#d4d425" fill-rule="nonzero" id="svg_2834" d="m143.969,251.98c19.894,0 36.027,16.118 36.027,36.008c0,19.883 -16.133,35.996 -36.027,35.996c-19.883,0 -35.989,-16.113 -35.989,-35.996c0,-19.89 16.106,-36.008 35.989,-36.008"/>
           <path fill="#d4d425" fill-rule="nonzero" id="svg_2833" d="m0,251.98c19.8828,0 35.9961,16.118 35.9961,36.008c0,19.883 -16.1133,35.996 -35.9961,35.996c-19.8828,0 -35.9961,-16.113 -35.9961,-35.996c0,-19.89 16.1133,-36.008 35.9961,-36.008"/>
          </g>
         </g>
        </g>
       </pattern>
      </defs>
      <clipPath id="SVGID_109_">
       <use id="svg_138" xlink:href="#SVGID_108_"/>
      </clipPath>
     </g>
    </g>
   </g>
  </g>
  <g id="svg_462">
   <defs>
    <path d="m2116.6,1204.9l0,0l0,0z" id="SVGID_426_"/>
   </defs>
   <clipPath id="SVGID_427_">
    <use id="svg_463" xlink:href="#SVGID_426_"/>
   </clipPath>
   <circle id="svg_464" fill="url(#SVGID_428_)" clip-path="url(#SVGID_427_)" r="0" cy="1204.9" cx="2116.6" class="st180"/>
  </g>
  <g stroke="null">
   <path stroke="null" fill="#61A4AE" d="m740.54473,707.56083c0,-5.18538 -1.58442,-6.33768 -6.48172,-6.33768c-64.09701,0.14404 -128.19401,0.14404 -192.29102,-0.14404c-6.19364,0 -6.91383,2.30461 -6.91383,7.48999c0.14404,30.24803 0.14404,60.49605 -0.14404,90.74408c-0.14404,6.04961 1.72846,7.63403 7.63403,7.63403c25.6388,-0.28808 51.42164,-0.14404 77.06044,-0.14404c3.60096,0 6.48172,-0.14404 6.33768,5.04134c-0.28808,55.45471 0.28808,110.90943 -0.72019,166.36414c-0.43211,20.45343 -8.64229,38.60224 -25.92688,51.56568c-19.15708,14.54786 -40.61878,18.43689 -63.95297,15.70017c-28.6636,-3.31288 -52.71799,-23.33419 -60.49605,-50.41338c-3.16884,-11.23498 -3.74499,-22.614 -3.60096,-34.13706c0,-117.10307 0,-234.20614 0,-351.45324c0,-24.91861 -0.43211,-49.98126 0.28808,-74.89987c0.86423,-30.24803 14.11575,-53.29414 42.77935,-65.9695c11.81113,-5.32941 24.34246,-7.05787 37.16186,-6.7698c43.64358,1.00827 73.02737,29.95995 74.03564,73.45949c0.28808,14.11575 0.14404,28.37553 0.14404,42.49127c0,3.31288 0.43211,5.32941 4.60922,5.32941c35.28936,-0.14404 70.57873,-0.14404 105.86809,0c2.88076,0 4.46518,-0.57615 4.46518,-3.88903c-0.14404,-28.51957 1.58442,-57.18317 -5.04134,-85.27062c-18.00478,-75.33199 -65.68143,-121.56825 -139.86111,-141.15745c-9.07441,-2.44865 -18.43689,-3.88903 -27.79938,-5.90557c-0.43211,0 -1.00827,0 -1.44038,0c-2.88076,1.15231 -5.76153,1.15231 -8.64229,0c-10.08268,0 -20.16535,0 -30.24803,0c-16.27632,1.29634 -32.26456,4.32115 -47.53261,10.08268c-67.26585,25.49476 -108.02866,73.45949 -121.71229,144.03821c-4.46518,23.19015 -4.32115,46.81242 -4.17711,70.29065c0.14404,39.61051 0,79.22102 0,118.83153c0,4.75326 0.14404,9.21845 -6.7698,9.07441c-33.12879,-0.14404 -66.25758,0 -99.38637,0c-5.04134,0 -6.62576,-2.44865 -6.62576,-7.20191c0.14404,-6.48172 0,-12.96344 0,-19.44516c0,-26.35899 0,-52.86202 0,-79.22102c0,-7.63403 0.72019,-8.21018 8.21018,-8.35422c6.04961,-0.14404 11.95517,0 18.00478,0c2.59269,0 5.76153,0.43211 7.34595,-2.01654c1.72846,-3.0248 -0.86423,-5.32941 -2.44865,-7.63403c-26.21496,-37.3059 -52.57395,-74.46776 -78.93294,-111.62962c-6.33768,-8.93037 -8.35422,-8.93037 -14.54786,-0.14404c-19.01304,26.79111 -38.17013,53.58222 -56.89509,80.51736c-8.64229,12.38729 -18.58093,23.91034 -25.20669,37.59397c0,0.43211 0,1.00827 0,1.44038c9.7946,0 19.73324,0.43211 29.52783,-0.14404c6.33768,-0.43211 7.9221,1.58442 7.9221,7.9221c-0.28808,53.00606 0.72019,106.15616 -0.43211,159.16223c-0.72019,31.54437 24.05438,57.75932 56.75106,57.03913c52.28587,-1.15231 104.57174,-0.14404 157.00165,-0.43211c7.34595,0 9.07441,1.72846 9.07441,9.07441c0.28808,56.31894 -1.58442,112.78192 1.00827,169.10086c1.00827,23.91034 6.91383,46.81242 16.85247,68.70623c35.57744,77.49256 120.9921,117.67922 202.51773,105.43597c94.20099,-14.11575 162.18703,-84.98255 163.33934,-186.38545c0.86423,-88.29543 0.14404,-176.73489 0.28808,-265.03031z" class="st0"/>
   <path stroke="null" fill="#61A4AE" d="m2139.73194,932.8366c0.14404,-5.47345 -1.44038,-6.91383 -6.7698,-6.91383c-33.5609,0.28808 -67.26585,0.28808 -100.82675,0c-5.32941,0 -6.7698,1.29634 -6.91383,6.7698c0,17.28459 1.44038,34.56917 -1.29634,51.70972c-4.03307,26.21496 -16.42036,46.38031 -42.05916,56.46298c-15.8442,6.19364 -32.12052,6.62576 -48.82895,3.45692c-18.29285,-3.60096 -31.25629,-13.68363 -39.03436,-30.68014c-6.33768,-13.68363 -9.7946,-28.08745 -9.7946,-43.06743c-0.14404,-141.44553 -0.14404,-282.74701 0,-424.19254c0,-14.40382 2.44865,-28.6636 7.05787,-42.34724c3.60096,-10.80287 7.9221,-21.17362 16.99651,-28.6636c21.17362,-17.28459 62.08047,-18.58093 83.83024,-2.30461c22.18189,16.56439 31.54437,39.89859 32.98475,66.68969c0.72019,12.67536 0.28808,25.49476 0.14404,38.17013c0,3.31288 0.28808,5.32941 4.46518,5.32941c35.00129,-0.14404 70.14661,-0.14404 105.1479,0c3.31288,0 4.75326,-1.15231 4.60922,-4.60922c-0.57615,-27.07918 1.72846,-54.30241 -3.45692,-81.09351c-13.39555,-69.42642 -59.9199,-126.75363 -133.52342,-144.90244c-8.64229,-2.16057 -17.57266,-3.74499 -26.35899,-5.61749c-0.43211,0 -1.00827,0 -1.44038,0c-2.88076,1.15231 -5.76153,1.15231 -8.64229,0c-7.20191,0 -14.40382,0 -21.60573,0c-2.88076,1.15231 -5.76153,1.15231 -8.64229,0c-1.00827,0 -1.8725,0 -2.88076,0c-3.60096,2.73673 -8.21018,2.01654 -12.24325,2.73673c-59.05567,10.80287 -104.13963,41.05089 -131.79497,95.20926c-14.40382,28.08745 -19.73324,58.47952 -19.73324,89.73581c-0.14404,142.88591 0,285.62778 0,428.51369c0,19.01304 0.72019,37.88205 4.03307,56.60702c7.48999,41.48301 27.07918,76.05218 59.77586,102.84329c31.83245,26.07092 69.85853,34.85725 109.61308,38.02609c41.91512,3.31288 80.37332,-6.91383 115.08653,-30.96822c44.93992,-31.25629 71.73103,-73.74757 79.94121,-127.90593c3.74499,-22.90208 1.29634,-45.94819 2.16057,-68.9943z" class="st0"/>
   <path stroke="null" fill="#61A4AE" d="m1131.60848,797.87279c-2.44865,-7.05787 -1.44038,-10.08268 5.18538,-13.97171c33.70494,-19.87727 58.62355,-47.53261 72.59526,-84.55043c10.22671,-27.36726 15.41209,-55.74279 17.14055,-84.83851c2.88076,-47.1005 -0.14404,-93.4808 -14.83594,-138.56476c-15.26805,-46.81242 -43.3555,-83.11005 -89.15965,-103.70751c-27.65534,-12.53132 -56.75106,-17.86074 -86.71101,-18.00478c-61.93643,-0.28808 -123.87286,0 -185.8093,-0.28808c-6.7698,0 -8.78633,1.44038 -8.78633,8.49825c0.28808,130.64266 0.14404,261.14128 0.14404,391.78394c0,130.64266 0.14404,261.14128 -0.14404,391.78394c0,7.48999 2.16057,9.07441 9.21845,8.93037c31.68841,-0.43211 63.37681,-0.14404 95.06522,-0.14404c10.08268,0 10.22671,0 10.22671,-9.93864c0,-109.46904 0,-218.93809 0,-328.40713c0,-11.37902 -1.15231,-9.7946 10.08268,-9.7946c16.56439,-0.14404 33.12879,0.28808 49.69318,-0.14404c5.61749,-0.14404 7.63403,1.72846 9.21845,7.05787c34.42513,111.1975 69.28238,222.395 103.70751,333.5925c1.72846,5.61749 4.03307,7.9221 10.37075,7.77806c35.28936,-0.28808 70.57873,-0.28808 105.86809,0c6.91383,0 7.05787,-1.72846 5.18538,-7.63403c-39.61051,-116.52692 -78.7889,-233.05383 -118.25537,-349.43671zm-22.18189,-164.49164c-5.90557,41.19493 -28.6636,62.80066 -70.14661,66.83373c-26.07092,2.44865 -52.28587,0.43211 -78.35679,1.29634c-5.76153,0.14404 -5.18538,-3.31288 -5.18538,-7.05787c0,-37.59397 0,-75.33199 0,-112.92596c0,-37.44994 0.14404,-74.89987 -0.14404,-112.20577c0,-5.76153 1.58442,-7.34595 7.34595,-7.20191c22.75804,0.43211 45.66011,-0.28808 68.41815,0.57615c20.7415,0.72019 40.47474,5.47345 56.1749,20.45343c15.26805,14.54786 21.02958,33.5609 23.19015,53.58222c3.16884,32.12052 3.31288,64.38508 -1.29634,96.64964z" class="st0"/>
   <path stroke="null" fill="#61A4AE" d="m1611.39977,385.49138c-30.39206,-21.89381 -65.39335,-30.10399 -101.69098,-30.82418c-60.49605,-1.29634 -120.9921,-0.28808 -181.48815,-0.86423c-7.63403,0 -8.93037,2.16057 -8.93037,9.21845c0.14404,130.35458 0.14404,260.70917 0.14404,390.91971c0,131.07478 0,262.14955 -0.14404,393.08029c0,5.76153 1.29634,7.77806 7.48999,7.63403c32.4086,-0.28808 64.8172,-0.14404 97.22579,-0.14404c9.65056,0 9.65056,0 9.65056,-9.65056c0,-109.90116 0,-219.80232 -0.14404,-329.70347c0,-6.33768 1.44038,-8.78633 8.35422,-8.64229c21.60573,0.43211 43.21146,0.28808 64.8172,-0.14404c25.92688,-0.43211 51.70972,-3.74499 76.48429,-11.81113c53.43818,-17.28459 89.59177,-51.56568 100.10656,-108.02866c11.52306,-61.79239 10.80287,-124.16094 0.28808,-186.09737c-8.35422,-47.82069 -32.4086,-86.42293 -72.16315,-114.9425zm-30.96822,253.07514c-3.88903,33.12879 -24.91861,54.30241 -58.33548,60.06394c-27.94341,4.75326 -56.03087,2.01654 -83.97428,2.73673c-5.76153,0.14404 -4.32115,-4.03307 -4.32115,-7.05787c0,-37.59397 0,-75.33199 0,-112.92596c0,-37.44994 0.14404,-74.89987 -0.14404,-112.20577c0,-5.76153 1.72846,-7.34595 7.34595,-7.20191c22.32592,0.43211 44.65185,-0.14404 66.97777,0.57615c17.14055,0.57615 33.5609,4.60922 47.67665,15.55613c15.41209,12.09921 22.46996,28.6636 24.63053,47.1005c4.17711,37.59397 4.46518,75.47602 0.14404,113.35807z" class="st0"/>
   <path stroke="null" fill="#61A4AE" d="m2399.14477,924.33834c-8.93037,0 -17.86074,-0.43211 -26.93515,0.14404c-6.62576,0.43211 -8.35422,-1.8725 -8.35422,-8.49825c0.28808,-54.30241 0.28808,-108.46078 0.14404,-162.76318c-0.14404,-29.95995 -22.90208,-53.00606 -52.86202,-53.1501c-93.19272,-0.14404 -186.24141,0 -279.43414,-0.14404c-5.18538,0 -6.33768,1.72846 -6.33768,6.62576c0.14404,30.24803 0.28808,60.49605 0,90.74408c-0.14404,7.05787 1.29634,9.21845 8.93037,9.21845c72.30718,-0.28808 144.47033,-0.14404 216.77751,-0.28808c6.48172,0 7.9221,1.72846 7.9221,8.06614c-0.28808,33.84898 -0.28808,67.69796 0,101.54694c0,6.7698 -1.29634,9.36248 -8.49825,8.78633c-8.49825,-0.72019 -16.99651,-0.14404 -25.35073,-0.14404c-0.86423,2.59269 0.43211,3.60096 1.15231,4.60922c27.36726,38.74628 54.87856,77.49256 82.24582,116.38288c3.45692,4.8973 5.18538,2.88076 7.63403,-0.57615c26.93515,-38.17013 54.01433,-76.34025 80.94948,-114.65442c0.86423,-1.58442 2.73673,-2.88076 2.01654,-5.90557z" class="st0"/>
  </g>
 </g>
</svg>